<svg width="37" height="43" viewBox="0 0 37 43" fill="none" xmlns="http://www.w3.org/2000/svg">
<path d="M30.0131 41.04C27.6856 43.2963 25.1443 42.94 22.6981 41.8713C20.1093 40.7788 17.7343 40.7313 15.0031 41.8713C11.5831 43.3438 9.77806 42.9163 7.73556 41.04C-3.85444 29.0938 -2.14444 10.9013 11.0131 10.2363C14.2193 10.4025 16.4518 11.9938 18.3281 12.1363C21.1306 11.5663 23.8143 9.9275 26.8068 10.1413C30.3931 10.4263 33.1006 11.8513 34.8818 14.4163C27.4718 18.8575 29.2293 28.6188 36.0218 31.35C34.6681 34.9125 32.9106 38.4513 29.9893 41.0638L30.0131 41.04ZM18.0906 10.0938C17.7343 4.7975 22.0331 0.4275 26.9731 0C27.6618 6.1275 21.4156 10.6875 18.0906 10.0938Z" fill="black"/>
</svg>
