<svg width="45" height="45" viewBox="0 0 45 45" fill="none" xmlns="http://www.w3.org/2000/svg">
<g clip-path="url(#clip0_491_254)">
<path d="M15.6762 1.48012C11.18 3.0399 7.30245 6.0004 4.61316 9.92677C1.92387 13.8531 0.564567 18.5384 0.734903 23.2945C0.905238 28.0505 2.59624 32.6265 5.55952 36.3504C8.5228 40.0744 12.6022 42.7499 17.1984 43.984C20.9247 44.9455 24.8288 44.9878 28.575 44.1071C31.9687 43.3448 35.1062 41.7142 37.6805 39.375C40.3596 36.8661 42.3043 33.6744 43.3055 30.143C44.3932 26.3027 44.5869 22.2643 43.8715 18.3375H22.9465V27.0176H35.0648C34.8226 28.402 34.3036 29.7234 33.5389 30.9025C32.7741 32.0817 31.7793 33.0944 30.6141 33.8801C29.1345 34.8594 27.4663 35.518 25.7168 35.8137C23.9623 36.14 22.1627 36.14 20.4082 35.8137C18.6298 35.4465 16.9476 34.7125 15.4687 33.6586C13.0927 31.9767 11.3086 29.5873 10.3711 26.8313C9.41796 24.0237 9.41796 20.98 10.3711 18.1723C11.0384 16.2043 12.1417 14.4125 13.5984 12.9305C15.2655 11.2035 17.3761 9.96894 19.6986 9.36242C22.0211 8.75591 24.4658 8.80082 26.7644 9.49223C28.5602 10.0432 30.2023 11.0063 31.5598 12.3047C32.9262 10.9454 34.2902 9.58247 35.6519 8.21606C36.3551 7.4813 37.1215 6.78169 37.8141 6.02934C35.7417 4.10109 33.3093 2.60057 30.6562 1.61372C25.8247 -0.140614 20.5382 -0.18776 15.6762 1.48012Z" fill="white"/>
<path d="M15.6762 1.48012C20.5378 -0.188894 25.8243 -0.142989 30.6562 1.6102C33.3098 2.60376 35.7411 4.1115 37.8105 6.04692C37.1074 6.79927 36.3656 7.50239 35.6484 8.23364C34.2844 9.59536 32.9215 10.9524 31.5598 12.3047C30.2023 11.0063 28.5602 10.0432 26.7644 9.49223C24.4665 8.79839 22.0219 8.75089 19.6988 9.35492C17.3757 9.95896 15.2638 11.1912 13.5949 12.9165C12.1382 14.3984 11.0349 16.1903 10.3676 18.1583L3.07968 12.5157C5.6883 7.34265 10.205 3.38568 15.6762 1.48012Z" fill="#E33629"/>
<path d="M1.1461 18.1055C1.53753 16.164 2.18787 14.284 3.0797 12.5156L10.3676 18.1723C9.41446 20.9799 9.41446 24.0236 10.3676 26.8313C7.93946 28.7063 5.51016 30.5906 3.0797 32.4844C0.847804 28.0417 0.167115 22.9799 1.1461 18.1055Z" fill="#F8BD00"/>
<path d="M22.9465 18.334H43.8715C44.5869 22.2607 44.3933 26.2992 43.3055 30.1395C42.3043 33.6708 40.3597 36.8625 37.6805 39.3715C35.3285 37.5363 32.966 35.7152 30.6141 33.8801C31.7801 33.0936 32.7754 32.0797 33.5401 30.8993C34.3049 29.7189 34.8235 28.3962 35.0648 27.0105H22.9465C22.943 24.1207 22.9465 21.2273 22.9465 18.334Z" fill="#587DBD"/>
<path d="M3.07617 32.4844C5.50664 30.6094 7.93594 28.725 10.3641 26.8313C11.3035 29.5882 13.0901 31.9778 15.4688 33.6586C16.9522 34.7076 18.6381 35.4356 20.4188 35.7961C22.1732 36.1225 23.9729 36.1225 25.7273 35.7961C27.4768 35.5004 29.145 34.8418 30.6246 33.8625C32.9766 35.6977 35.3391 37.5188 37.691 39.354C35.1172 41.6944 31.9796 43.3262 28.5855 44.0895C24.8393 44.9702 20.9353 44.928 17.209 43.9665C14.2618 43.1796 11.509 41.7924 9.12305 39.8918C6.59787 37.8866 4.53528 35.3599 3.07617 32.4844Z" fill="#319F43"/>
</g>
<defs>
<clipPath id="clip0_491_254">
<rect width="45" height="45" fill="white"/>
</clipPath>
</defs>
</svg>
